<mxfile host="app.diagrams.net" modified="2022-11-07T08:39:03.921Z" agent="5.0 (Windows NT 10.0; Win64; x64) AppleWebKit/537.36 (KHTML, like Gecko) Chrome/107.0.0.0 Safari/537.36" etag="PJzUnAHomBuYVgnBB2BX" version="20.5.3" type="github">
  <diagram id="19G66bsPUDtqEdiIhy2v" name="Page-1">
    <mxGraphModel dx="981" dy="1626" grid="1" gridSize="6" guides="1" tooltips="1" connect="1" arrows="1" fold="1" page="1" pageScale="1" pageWidth="850" pageHeight="1100" math="0" shadow="0">
      <root>
        <mxCell id="0" />
        <mxCell id="1" parent="0" />
        <mxCell id="jr1hqITOWlZOz_1kM7qc-50" value="" style="rounded=0;whiteSpace=wrap;html=1;dashed=1;strokeWidth=1;fontSize=11;rotation=90;fillColor=#b1ddf0;strokeColor=#10739e;" vertex="1" parent="1">
          <mxGeometry x="516" y="90" width="180" height="60" as="geometry" />
        </mxCell>
        <mxCell id="jr1hqITOWlZOz_1kM7qc-49" value="" style="rounded=0;whiteSpace=wrap;html=1;dashed=1;strokeWidth=1;fontSize=11;rotation=90;fillColor=#b1ddf0;strokeColor=#10739e;" vertex="1" parent="1">
          <mxGeometry x="395" y="51" width="180" height="138" as="geometry" />
        </mxCell>
        <mxCell id="jr1hqITOWlZOz_1kM7qc-47" value="" style="rounded=0;whiteSpace=wrap;html=1;dashed=1;strokeWidth=1;fontSize=11;rotation=90;fillColor=#b1ddf0;strokeColor=#10739e;" vertex="1" parent="1">
          <mxGeometry x="183" y="87" width="180" height="66" as="geometry" />
        </mxCell>
        <mxCell id="jr1hqITOWlZOz_1kM7qc-46" value="" style="rounded=0;whiteSpace=wrap;html=1;dashed=1;strokeWidth=1;fontSize=11;rotation=90;fillColor=#b1ddf0;strokeColor=#10739e;" vertex="1" parent="1">
          <mxGeometry x="96" y="90" width="180" height="60" as="geometry" />
        </mxCell>
        <mxCell id="jr1hqITOWlZOz_1kM7qc-1" value="Main" style="ellipse;whiteSpace=wrap;html=1;aspect=fixed;fillColor=#dae8fc;strokeColor=#6c8ebf;" vertex="1" parent="1">
          <mxGeometry x="50" y="100" width="40" height="40" as="geometry" />
        </mxCell>
        <mxCell id="jr1hqITOWlZOz_1kM7qc-2" value="Main" style="ellipse;whiteSpace=wrap;html=1;aspect=fixed;fillColor=#fff2cc;strokeColor=#d6b656;strokeWidth=4;" vertex="1" parent="1">
          <mxGeometry x="680" y="100" width="40" height="40" as="geometry" />
        </mxCell>
        <mxCell id="jr1hqITOWlZOz_1kM7qc-3" value="" style="endArrow=none;dashed=1;html=1;dashPattern=1 3;strokeWidth=2;rounded=0;exitX=1;exitY=0.5;exitDx=0;exitDy=0;entryX=0;entryY=0.5;entryDx=0;entryDy=0;fillColor=#dae8fc;strokeColor=#6c8ebf;startArrow=none;" edge="1" parent="1" source="jr1hqITOWlZOz_1kM7qc-37" target="jr1hqITOWlZOz_1kM7qc-2">
          <mxGeometry width="50" height="50" relative="1" as="geometry">
            <mxPoint x="320" y="520" as="sourcePoint" />
            <mxPoint x="370" y="470" as="targetPoint" />
          </mxGeometry>
        </mxCell>
        <mxCell id="jr1hqITOWlZOz_1kM7qc-4" value="" style="endArrow=none;html=1;rounded=0;" edge="1" parent="1" target="jr1hqITOWlZOz_1kM7qc-5">
          <mxGeometry width="50" height="50" relative="1" as="geometry">
            <mxPoint x="805" y="240" as="sourcePoint" />
            <mxPoint x="800" as="targetPoint" />
          </mxGeometry>
        </mxCell>
        <mxCell id="jr1hqITOWlZOz_1kM7qc-5" value="Consolidated repo" style="text;html=1;strokeColor=#d79b00;fillColor=#ffe6cc;align=center;verticalAlign=middle;whiteSpace=wrap;rounded=0;" vertex="1" parent="1">
          <mxGeometry x="770" y="-30" width="70" height="30" as="geometry" />
        </mxCell>
        <mxCell id="jr1hqITOWlZOz_1kM7qc-6" value="Server" style="text;html=1;strokeColor=#d79b00;fillColor=#ffe6cc;align=center;verticalAlign=middle;whiteSpace=wrap;rounded=0;rotation=90;" vertex="1" parent="1">
          <mxGeometry x="820" y="30" width="60" height="30" as="geometry" />
        </mxCell>
        <mxCell id="jr1hqITOWlZOz_1kM7qc-7" value="Client" style="text;html=1;strokeColor=#d79b00;fillColor=#ffe6cc;align=center;verticalAlign=middle;whiteSpace=wrap;rounded=0;rotation=90;" vertex="1" parent="1">
          <mxGeometry x="820" y="180" width="60" height="30" as="geometry" />
        </mxCell>
        <mxCell id="jr1hqITOWlZOz_1kM7qc-8" value="ServerFeature 1" style="rounded=1;whiteSpace=wrap;html=1;fillColor=#d5e8d4;strokeColor=#82b366;" vertex="1" parent="1">
          <mxGeometry x="162" y="60" width="96" height="20" as="geometry" />
        </mxCell>
        <mxCell id="jr1hqITOWlZOz_1kM7qc-14" value="ServerFeature 2" style="rounded=1;whiteSpace=wrap;html=1;fillColor=#d5e8d4;strokeColor=#82b366;" vertex="1" parent="1">
          <mxGeometry x="440" y="60" width="90" height="20" as="geometry" />
        </mxCell>
        <mxCell id="jr1hqITOWlZOz_1kM7qc-20" value="ClientFeature1" style="rounded=1;whiteSpace=wrap;html=1;strokeWidth=1;fillColor=#fad9d5;strokeColor=#ae4132;" vertex="1" parent="1">
          <mxGeometry x="108" y="168" width="84" height="18" as="geometry" />
        </mxCell>
        <mxCell id="jr1hqITOWlZOz_1kM7qc-21" value="ClientFeature1" style="rounded=1;whiteSpace=wrap;html=1;strokeWidth=1;fillColor=#fad9d5;strokeColor=#ae4132;" vertex="1" parent="1">
          <mxGeometry x="246" y="168" width="84" height="18" as="geometry" />
        </mxCell>
        <mxCell id="jr1hqITOWlZOz_1kM7qc-22" value="ClientFeature1" style="rounded=1;whiteSpace=wrap;html=1;strokeWidth=1;fillColor=#fad9d5;strokeColor=#ae4132;" vertex="1" parent="1">
          <mxGeometry x="372" y="168" width="84" height="18" as="geometry" />
        </mxCell>
        <mxCell id="jr1hqITOWlZOz_1kM7qc-23" value="ClientFeature1" style="rounded=1;whiteSpace=wrap;html=1;strokeWidth=1;fillColor=#fad9d5;strokeColor=#ae4132;" vertex="1" parent="1">
          <mxGeometry x="510" y="168" width="84" height="18" as="geometry" />
        </mxCell>
        <mxCell id="jr1hqITOWlZOz_1kM7qc-24" value="" style="endArrow=classic;html=1;rounded=0;entryX=0.127;entryY=1;entryDx=0;entryDy=0;entryPerimeter=0;" edge="1" parent="1" target="jr1hqITOWlZOz_1kM7qc-8">
          <mxGeometry width="50" height="50" relative="1" as="geometry">
            <mxPoint x="174" y="120" as="sourcePoint" />
            <mxPoint x="344" y="84" as="targetPoint" />
          </mxGeometry>
        </mxCell>
        <mxCell id="jr1hqITOWlZOz_1kM7qc-25" value="" style="endArrow=classic;html=1;rounded=0;entryX=0.127;entryY=1;entryDx=0;entryDy=0;entryPerimeter=0;" edge="1" parent="1">
          <mxGeometry width="50" height="50" relative="1" as="geometry">
            <mxPoint x="450" y="120" as="sourcePoint" />
            <mxPoint x="450.192" y="80" as="targetPoint" />
          </mxGeometry>
        </mxCell>
        <mxCell id="jr1hqITOWlZOz_1kM7qc-26" value="" style="endArrow=classic;html=1;rounded=0;exitX=0.865;exitY=0.958;exitDx=0;exitDy=0;exitPerimeter=0;" edge="1" parent="1" source="jr1hqITOWlZOz_1kM7qc-8">
          <mxGeometry width="50" height="50" relative="1" as="geometry">
            <mxPoint x="246" y="96" as="sourcePoint" />
            <mxPoint x="245" y="120" as="targetPoint" />
          </mxGeometry>
        </mxCell>
        <mxCell id="jr1hqITOWlZOz_1kM7qc-27" value="" style="endArrow=classic;html=1;rounded=0;exitX=0.875;exitY=1.2;exitDx=0;exitDy=0;exitPerimeter=0;" edge="1" parent="1">
          <mxGeometry width="50" height="50" relative="1" as="geometry">
            <mxPoint x="522" y="80.00000000000023" as="sourcePoint" />
            <mxPoint x="522" y="120" as="targetPoint" />
          </mxGeometry>
        </mxCell>
        <mxCell id="jr1hqITOWlZOz_1kM7qc-28" value="" style="endArrow=classic;html=1;rounded=0;exitX=0.865;exitY=0.958;exitDx=0;exitDy=0;exitPerimeter=0;entryX=0.083;entryY=-0.028;entryDx=0;entryDy=0;entryPerimeter=0;" edge="1" parent="1" target="jr1hqITOWlZOz_1kM7qc-20">
          <mxGeometry width="50" height="50" relative="1" as="geometry">
            <mxPoint x="113.99999999999997" y="120.00000000000031" as="sourcePoint" />
            <mxPoint x="114.96000000000001" y="160.84" as="targetPoint" />
          </mxGeometry>
        </mxCell>
        <mxCell id="jr1hqITOWlZOz_1kM7qc-29" value="" style="endArrow=classic;html=1;rounded=0;exitX=0.865;exitY=0.958;exitDx=0;exitDy=0;exitPerimeter=0;entryX=0.083;entryY=-0.028;entryDx=0;entryDy=0;entryPerimeter=0;" edge="1" parent="1">
          <mxGeometry width="50" height="50" relative="1" as="geometry">
            <mxPoint x="516" y="120.5" as="sourcePoint" />
            <mxPoint x="516.972" y="167.99599999999987" as="targetPoint" />
          </mxGeometry>
        </mxCell>
        <mxCell id="jr1hqITOWlZOz_1kM7qc-30" value="" style="endArrow=classic;html=1;rounded=0;exitX=0.865;exitY=0.958;exitDx=0;exitDy=0;exitPerimeter=0;entryX=0.083;entryY=-0.028;entryDx=0;entryDy=0;entryPerimeter=0;" edge="1" parent="1">
          <mxGeometry width="50" height="50" relative="1" as="geometry">
            <mxPoint x="378" y="120.5" as="sourcePoint" />
            <mxPoint x="378.972" y="167.99599999999987" as="targetPoint" />
          </mxGeometry>
        </mxCell>
        <mxCell id="jr1hqITOWlZOz_1kM7qc-31" value="" style="endArrow=classic;html=1;rounded=0;exitX=0.865;exitY=0.958;exitDx=0;exitDy=0;exitPerimeter=0;entryX=0.083;entryY=-0.028;entryDx=0;entryDy=0;entryPerimeter=0;" edge="1" parent="1">
          <mxGeometry width="50" height="50" relative="1" as="geometry">
            <mxPoint x="252" y="120.5" as="sourcePoint" />
            <mxPoint x="252.97199999999998" y="167.99599999999987" as="targetPoint" />
          </mxGeometry>
        </mxCell>
        <mxCell id="jr1hqITOWlZOz_1kM7qc-32" value="" style="endArrow=classic;html=1;rounded=0;exitX=0.857;exitY=0.065;exitDx=0;exitDy=0;exitPerimeter=0;" edge="1" parent="1" source="jr1hqITOWlZOz_1kM7qc-20">
          <mxGeometry width="50" height="50" relative="1" as="geometry">
            <mxPoint x="179" y="168" as="sourcePoint" />
            <mxPoint x="180" y="120" as="targetPoint" />
          </mxGeometry>
        </mxCell>
        <mxCell id="jr1hqITOWlZOz_1kM7qc-33" value="" style="endArrow=classic;html=1;rounded=0;exitX=0.857;exitY=0.065;exitDx=0;exitDy=0;exitPerimeter=0;" edge="1" parent="1">
          <mxGeometry width="50" height="50" relative="1" as="geometry">
            <mxPoint x="587.998" y="168.00000000000009" as="sourcePoint" />
            <mxPoint x="588.01" y="118.83" as="targetPoint" />
          </mxGeometry>
        </mxCell>
        <mxCell id="jr1hqITOWlZOz_1kM7qc-34" value="" style="endArrow=classic;html=1;rounded=0;exitX=0.857;exitY=0.065;exitDx=0;exitDy=0;exitPerimeter=0;" edge="1" parent="1">
          <mxGeometry width="50" height="50" relative="1" as="geometry">
            <mxPoint x="443.99800000000005" y="168.00000000000009" as="sourcePoint" />
            <mxPoint x="444.01" y="118.83" as="targetPoint" />
          </mxGeometry>
        </mxCell>
        <mxCell id="jr1hqITOWlZOz_1kM7qc-35" value="" style="endArrow=classic;html=1;rounded=0;exitX=0.857;exitY=0.065;exitDx=0;exitDy=0;exitPerimeter=0;" edge="1" parent="1">
          <mxGeometry width="50" height="50" relative="1" as="geometry">
            <mxPoint x="323.99800000000005" y="168.00000000000006" as="sourcePoint" />
            <mxPoint x="324.01" y="118.83" as="targetPoint" />
          </mxGeometry>
        </mxCell>
        <mxCell id="jr1hqITOWlZOz_1kM7qc-36" value="1" style="ellipse;whiteSpace=wrap;html=1;aspect=fixed;strokeWidth=1;fillColor=#d0cee2;strokeColor=#56517e;" vertex="1" parent="1">
          <mxGeometry x="186" y="111" width="18" height="18" as="geometry" />
        </mxCell>
        <mxCell id="jr1hqITOWlZOz_1kM7qc-39" value="3" style="ellipse;whiteSpace=wrap;html=1;aspect=fixed;strokeWidth=1;fillColor=#d0cee2;strokeColor=#56517e;" vertex="1" parent="1">
          <mxGeometry x="330" y="111" width="18" height="18" as="geometry" />
        </mxCell>
        <mxCell id="jr1hqITOWlZOz_1kM7qc-41" value="" style="endArrow=none;dashed=1;html=1;dashPattern=1 3;strokeWidth=2;rounded=0;exitX=1;exitY=0.5;exitDx=0;exitDy=0;entryX=0;entryY=0.5;entryDx=0;entryDy=0;fillColor=#dae8fc;strokeColor=#6c8ebf;startArrow=none;" edge="1" parent="1" source="jr1hqITOWlZOz_1kM7qc-40" target="jr1hqITOWlZOz_1kM7qc-39">
          <mxGeometry width="50" height="50" relative="1" as="geometry">
            <mxPoint x="90" y="120" as="sourcePoint" />
            <mxPoint x="680" y="120" as="targetPoint" />
          </mxGeometry>
        </mxCell>
        <mxCell id="jr1hqITOWlZOz_1kM7qc-40" value="2" style="ellipse;whiteSpace=wrap;html=1;aspect=fixed;strokeWidth=1;fillColor=#d0cee2;strokeColor=#56517e;" vertex="1" parent="1">
          <mxGeometry x="252" y="111" width="18" height="18" as="geometry" />
        </mxCell>
        <mxCell id="jr1hqITOWlZOz_1kM7qc-42" value="" style="endArrow=none;dashed=1;html=1;dashPattern=1 3;strokeWidth=2;rounded=0;exitX=1;exitY=0.5;exitDx=0;exitDy=0;entryX=0;entryY=0.5;entryDx=0;entryDy=0;fillColor=#dae8fc;strokeColor=#6c8ebf;" edge="1" parent="1" source="jr1hqITOWlZOz_1kM7qc-1" target="jr1hqITOWlZOz_1kM7qc-40">
          <mxGeometry width="50" height="50" relative="1" as="geometry">
            <mxPoint x="90" y="120" as="sourcePoint" />
            <mxPoint x="330" y="120" as="targetPoint" />
          </mxGeometry>
        </mxCell>
        <mxCell id="jr1hqITOWlZOz_1kM7qc-37" value="5" style="ellipse;whiteSpace=wrap;html=1;aspect=fixed;strokeWidth=1;fillColor=#d0cee2;strokeColor=#56517e;" vertex="1" parent="1">
          <mxGeometry x="530" y="111" width="18" height="18" as="geometry" />
        </mxCell>
        <mxCell id="jr1hqITOWlZOz_1kM7qc-43" value="" style="endArrow=none;dashed=1;html=1;dashPattern=1 3;strokeWidth=2;rounded=0;exitX=1;exitY=0.5;exitDx=0;exitDy=0;entryX=0;entryY=0.5;entryDx=0;entryDy=0;fillColor=#dae8fc;strokeColor=#6c8ebf;startArrow=none;" edge="1" parent="1" source="jr1hqITOWlZOz_1kM7qc-38" target="jr1hqITOWlZOz_1kM7qc-37">
          <mxGeometry width="50" height="50" relative="1" as="geometry">
            <mxPoint x="348" y="120" as="sourcePoint" />
            <mxPoint x="680" y="120" as="targetPoint" />
          </mxGeometry>
        </mxCell>
        <mxCell id="jr1hqITOWlZOz_1kM7qc-44" value="6" style="ellipse;whiteSpace=wrap;html=1;aspect=fixed;strokeWidth=1;fillColor=#d0cee2;strokeColor=#56517e;" vertex="1" parent="1">
          <mxGeometry x="594" y="111" width="18" height="18" as="geometry" />
        </mxCell>
        <mxCell id="jr1hqITOWlZOz_1kM7qc-51" value="Snapshot 1" style="text;html=1;strokeColor=none;fillColor=none;align=center;verticalAlign=middle;whiteSpace=wrap;rounded=0;dashed=1;strokeWidth=1;fontSize=11;" vertex="1" parent="1">
          <mxGeometry x="156" width="60" height="30" as="geometry" />
        </mxCell>
        <mxCell id="jr1hqITOWlZOz_1kM7qc-52" value="Snapshot 2" style="text;html=1;strokeColor=none;fillColor=none;align=center;verticalAlign=middle;whiteSpace=wrap;rounded=0;dashed=1;strokeWidth=1;fontSize=11;" vertex="1" parent="1">
          <mxGeometry x="243" width="60" height="30" as="geometry" />
        </mxCell>
        <mxCell id="jr1hqITOWlZOz_1kM7qc-53" value="Snapshot 3" style="text;html=1;strokeColor=none;fillColor=none;align=center;verticalAlign=middle;whiteSpace=wrap;rounded=0;dashed=1;strokeWidth=1;fontSize=11;" vertex="1" parent="1">
          <mxGeometry x="450" width="60" height="30" as="geometry" />
        </mxCell>
        <mxCell id="jr1hqITOWlZOz_1kM7qc-54" value="Snapshot 4" style="text;html=1;strokeColor=none;fillColor=none;align=center;verticalAlign=middle;whiteSpace=wrap;rounded=0;dashed=1;strokeWidth=1;fontSize=11;" vertex="1" parent="1">
          <mxGeometry x="577" width="60" height="30" as="geometry" />
        </mxCell>
        <mxCell id="jr1hqITOWlZOz_1kM7qc-38" value="4" style="ellipse;whiteSpace=wrap;html=1;aspect=fixed;strokeWidth=1;fillColor=#d0cee2;strokeColor=#56517e;" vertex="1" parent="1">
          <mxGeometry x="450" y="111" width="18" height="18" as="geometry" />
        </mxCell>
        <mxCell id="jr1hqITOWlZOz_1kM7qc-55" value="" style="endArrow=none;dashed=1;html=1;dashPattern=1 3;strokeWidth=2;rounded=0;exitX=1;exitY=0.5;exitDx=0;exitDy=0;entryX=0;entryY=0.5;entryDx=0;entryDy=0;fillColor=#dae8fc;strokeColor=#6c8ebf;startArrow=none;" edge="1" parent="1" source="jr1hqITOWlZOz_1kM7qc-39" target="jr1hqITOWlZOz_1kM7qc-38">
          <mxGeometry width="50" height="50" relative="1" as="geometry">
            <mxPoint x="348.0000000000084" y="120.00000000000023" as="sourcePoint" />
            <mxPoint x="530.0000000000059" y="120.00000000000023" as="targetPoint" />
          </mxGeometry>
        </mxCell>
        <mxCell id="jr1hqITOWlZOz_1kM7qc-57" value="&lt;h1&gt;Snapshot 1&lt;/h1&gt;&lt;div&gt;&lt;b&gt;v0.0.1&lt;/b&gt;&lt;/div&gt;&lt;div&gt;- client changed&lt;/div&gt;&lt;div&gt;- only client deployed&lt;/div&gt;&lt;div&gt;client v1.0.2&lt;/div&gt;&lt;div&gt;server v2.0.1&lt;/div&gt;" style="text;html=1;strokeColor=none;fillColor=none;spacing=5;spacingTop=-20;whiteSpace=wrap;overflow=hidden;rounded=0;dashed=1;strokeWidth=1;fontSize=11;" vertex="1" parent="1">
          <mxGeometry x="108" y="-168" width="132" height="120" as="geometry" />
        </mxCell>
        <mxCell id="jr1hqITOWlZOz_1kM7qc-58" value="&lt;h1&gt;Snapshot 2&lt;/h1&gt;&lt;div&gt;&lt;b&gt;v0.0.2&lt;/b&gt;&lt;/div&gt;&lt;div&gt;- server changed&lt;/div&gt;&lt;div&gt;- only server deployed&lt;/div&gt;&lt;div&gt;client v1.0.2&lt;/div&gt;&lt;div&gt;server v2.0.2&lt;/div&gt;" style="text;html=1;strokeColor=none;fillColor=none;spacing=5;spacingTop=-20;whiteSpace=wrap;overflow=hidden;rounded=0;dashed=1;strokeWidth=1;fontSize=11;" vertex="1" parent="1">
          <mxGeometry x="276" y="-168" width="132" height="120" as="geometry" />
        </mxCell>
        <mxCell id="jr1hqITOWlZOz_1kM7qc-59" value="&lt;h1&gt;Snapshot 3&lt;/h1&gt;&lt;div&gt;&lt;b&gt;v0.0.3&lt;/b&gt;&lt;/div&gt;&lt;div&gt;- server changed&lt;/div&gt;&lt;div&gt;- client changed&lt;/div&gt;&lt;div&gt;- client/server deployed&lt;/div&gt;&lt;div&gt;client v1.0.3&lt;/div&gt;&lt;div&gt;server v2.0.3&lt;/div&gt;" style="text;html=1;strokeColor=none;fillColor=none;spacing=5;spacingTop=-20;whiteSpace=wrap;overflow=hidden;rounded=0;dashed=1;strokeWidth=1;fontSize=11;" vertex="1" parent="1">
          <mxGeometry x="443" y="-168" width="132" height="126" as="geometry" />
        </mxCell>
        <mxCell id="jr1hqITOWlZOz_1kM7qc-60" value="&lt;h1&gt;Snapshot 4&lt;/h1&gt;&lt;div&gt;&lt;b&gt;v0.0.4&lt;/b&gt;&lt;/div&gt;&lt;div&gt;&lt;div&gt;- client changed&lt;/div&gt;&lt;div&gt;- only client deployed&lt;/div&gt;&lt;/div&gt;&lt;div&gt;client v1.0.4&lt;/div&gt;&lt;div&gt;server v2.0.3&lt;/div&gt;" style="text;html=1;strokeColor=none;fillColor=none;spacing=5;spacingTop=-20;whiteSpace=wrap;overflow=hidden;rounded=0;dashed=1;strokeWidth=1;fontSize=11;" vertex="1" parent="1">
          <mxGeometry x="600" y="-168" width="132" height="120" as="geometry" />
        </mxCell>
        <mxCell id="jr1hqITOWlZOz_1kM7qc-61" value="client v1.0.1" style="text;html=1;strokeColor=none;fillColor=none;align=center;verticalAlign=middle;whiteSpace=wrap;rounded=0;dashed=1;strokeWidth=1;fontSize=11;" vertex="1" parent="1">
          <mxGeometry x="6" y="-156" width="60" height="30" as="geometry" />
        </mxCell>
        <mxCell id="jr1hqITOWlZOz_1kM7qc-62" value="server v2.0.1" style="text;html=1;strokeColor=none;fillColor=none;align=center;verticalAlign=middle;whiteSpace=wrap;rounded=0;dashed=1;strokeWidth=1;fontSize=11;" vertex="1" parent="1">
          <mxGeometry x="6" y="-114" width="60" height="30" as="geometry" />
        </mxCell>
      </root>
    </mxGraphModel>
  </diagram>
</mxfile>
